<svg width="70" height="70" viewBox="0 0 70 70" fill="none" xmlns="http://www.w3.org/2000/svg">
<path d="M35 48.125C42.2487 48.125 48.125 42.2487 48.125 35C48.125 27.7513 42.2487 21.875 35 21.875C27.7513 21.875 21.875 27.7513 21.875 35C21.875 42.2487 27.7513 48.125 35 48.125Z" stroke="#085090" stroke-width="4.375" stroke-linecap="round" stroke-linejoin="round"/>
<path d="M50.2305 17.8007C50.9232 18.4387 51.5794 19.0949 52.1992 19.7694L59.6641 20.8358C60.8804 22.9481 61.8178 25.2091 62.4531 27.5624L57.9141 33.6053C57.9141 33.6053 57.9961 35.4647 57.9141 36.3944L62.4531 42.4374C61.8208 44.7916 60.8831 47.053 59.6641 49.1639L52.1992 50.2303C52.1992 50.2303 50.9141 51.5702 50.2305 52.1991L49.1641 59.6639C47.0517 60.8802 44.7907 61.8177 42.4375 62.453L36.3945 57.9139C35.4667 57.996 34.5333 57.996 33.6055 57.9139L27.5625 62.453C25.2083 61.8207 22.9469 60.883 20.8359 59.6639L19.7695 52.1991C19.0951 51.5611 18.4388 50.9048 17.8008 50.2303L10.3359 49.1639C9.11964 47.0516 8.18215 44.7906 7.54688 42.4374L12.0859 36.3944C12.0859 36.3944 12.0039 34.535 12.0859 33.6053L7.54688 27.5624C8.1792 25.2081 9.11685 22.9468 10.3359 20.8358L17.8008 19.7694C18.4388 19.0949 19.0951 18.4387 19.7695 17.8007L20.8359 10.3358C22.9483 9.11952 25.2093 8.18203 27.5625 7.54675L33.6055 12.0858C34.5333 12.0038 35.4667 12.0038 36.3945 12.0858L42.4375 7.54675C44.7917 8.17908 47.0531 9.11673 49.1641 10.3358L50.2305 17.8007Z" stroke="#085090" stroke-width="4.375" stroke-linecap="round" stroke-linejoin="round"/>
</svg>
