<svg width="70" height="70" viewBox="0 0 70 70" fill="none" xmlns="http://www.w3.org/2000/svg">
<path d="M65.8164 33.3047L59.0625 36.668L50.3125 19.9336L57.1484 16.5156C57.6565 16.2567 58.2463 16.2091 58.7892 16.3833C59.3322 16.5574 59.7843 16.9392 60.0469 17.4453L66.7734 30.3242C66.9098 30.582 66.9933 30.8645 67.0189 31.1551C67.0446 31.4456 67.0118 31.7383 66.9227 32.016C66.8335 32.2937 66.6897 32.5508 66.4997 32.7721C66.3097 32.9934 66.0774 33.1745 65.8164 33.3047V33.3047Z" stroke="#085090" stroke-width="4" stroke-linecap="round" stroke-linejoin="round"/>
<path d="M10.9375 36.3946L4.18362 33.0039C3.92357 32.8765 3.6918 32.6981 3.50209 32.4792C3.31239 32.2604 3.16862 32.0057 3.07934 31.7302C2.99005 31.4547 2.95708 31.164 2.98238 30.8755C3.00767 30.587 3.09072 30.3066 3.22659 30.0508L9.95315 17.1719C10.2163 16.6661 10.6665 16.2831 11.2079 16.1043C11.7492 15.9256 12.339 15.9652 12.8516 16.2149L19.6875 19.6329L10.9375 36.3946Z" stroke="#085090" stroke-width="4" stroke-linecap="round" stroke-linejoin="round"/>
<path d="M59.0625 36.668L54.6875 41.8086L44.625 51.8711C44.3508 52.1275 44.0185 52.3137 43.6565 52.4137C43.2946 52.5137 42.9139 52.5246 42.5469 52.4453L26.6875 48.4805C26.3978 48.3997 26.1278 48.2601 25.8945 48.0703L10.9375 36.3945" stroke="#085090" stroke-width="4" stroke-linecap="round" stroke-linejoin="round"/>
<path d="M54.6875 41.8086L42.6562 33.0586L39.1562 35.6836C37.6399 36.8154 35.7984 37.4268 33.9062 37.4268C32.0141 37.4268 30.1726 36.8154 28.6562 35.6836L27.1797 34.5625C26.93 34.3727 26.7235 34.132 26.5738 33.8564C26.4241 33.5807 26.3347 33.2764 26.3114 32.9636C26.2881 32.6509 26.3316 32.3367 26.4388 32.0419C26.5461 31.7472 26.7147 31.4786 26.9336 31.2539L37.6523 20.5625C37.8537 20.3622 38.0926 20.2035 38.3553 20.0956C38.6181 19.9876 38.8995 19.9326 39.1836 19.9336H50.3125" stroke="#085090" stroke-width="4" stroke-linecap="round" stroke-linejoin="round"/>
<path d="M19.8516 19.6329L33.8789 15.5313C34.3773 15.3884 34.9103 15.4271 35.3828 15.6407L44.8438 19.9336" stroke="#085090" stroke-width="4" stroke-linecap="round" stroke-linejoin="round"/>
<path d="M30.625 58.2148L22.3945 56.1367C22.0591 56.061 21.7486 55.901 21.4922 55.6719L15.3125 50.3125" stroke="#085090" stroke-width="4" stroke-linecap="round" stroke-linejoin="round"/>
</svg>
